<svg width="115" height="19" viewBox="0 0 115 19" fill="none" xmlns="http://www.w3.org/2000/svg">
<path d="M0.51347 18L11.0735 0.503999H17.9855L21.3935 18H15.5375L15.1055 15.024H7.97747L6.34547 18H0.51347ZM10.2815 10.968H14.5055L13.9775 6.792L13.7135 4.944H13.5455L12.5615 6.744L10.2815 10.968ZM22.8899 18L26.5139 0.503999H31.9619L28.3379 18H22.8899ZM31.481 13.512L32.321 9.48H40.841L39.977 13.512H31.481ZM41.3018 18L44.9258 0.503999H53.7578C55.3258 0.503999 56.5818 0.719999 57.5258 1.152C58.4698 1.584 59.1418 2.192 59.5418 2.976C59.9578 3.76 60.1418 4.68 60.0938 5.736C60.0458 7.208 59.6938 8.424 59.0378 9.384C58.3818 10.344 57.4778 11.056 56.3258 11.52C55.1898 11.984 53.8698 12.216 52.3658 12.216H47.9498L46.7498 18H41.3018ZM52.4858 4.656H49.5338L48.7418 8.448H51.7898C52.7018 8.448 53.3898 8.272 53.8538 7.92C54.3178 7.568 54.5578 7.016 54.5738 6.264C54.5898 5.672 54.4218 5.256 54.0698 5.016C53.7178 4.776 53.1898 4.656 52.4858 4.656ZM56.4623 18L67.0223 0.503999H73.9343L77.3423 18H71.4863L71.0543 15.024H63.9263L62.2943 18H56.4623ZM66.2303 10.968H70.4543L69.9263 6.792L69.6623 4.944H69.4943L68.5103 6.744L66.2303 10.968ZM86.8728 18.24C85.0168 18.24 83.4408 18 82.1448 17.52C80.8488 17.04 79.8728 16.36 79.2168 15.48C78.5608 14.6 78.2568 13.568 78.3048 12.384H83.9448C83.9128 12.992 84.1608 13.504 84.6888 13.92C85.2168 14.32 86.0488 14.52 87.1848 14.52C88.1288 14.52 88.7928 14.384 89.1768 14.112C89.5608 13.84 89.7608 13.472 89.7768 13.008C89.7928 12.688 89.7048 12.44 89.5128 12.264C89.3208 12.088 88.9848 11.936 88.5048 11.808C88.0248 11.664 87.3368 11.52 86.4408 11.376C84.1688 10.976 82.5128 10.352 81.4728 9.504C80.4328 8.656 79.9368 7.496 79.9848 6.024C80.0328 4.712 80.4248 3.632 81.1608 2.784C81.8968 1.936 82.8728 1.304 84.0888 0.887999C85.3208 0.471999 86.6728 0.263999 88.1448 0.263999C89.7928 0.263999 91.2168 0.495999 92.4168 0.959999C93.6328 1.408 94.5688 2.04 95.2248 2.856C95.8968 3.672 96.2248 4.608 96.2088 5.664H90.7368C90.7208 5.104 90.4568 4.68 89.9448 4.392C89.4328 4.104 88.8008 3.96 88.0488 3.96C86.5608 3.96 85.7928 4.424 85.7448 5.352C85.7288 5.832 85.9448 6.168 86.3928 6.36C86.8568 6.552 87.6808 6.744 88.8648 6.936C90.2248 7.16 91.4088 7.464 92.4168 7.848C93.4248 8.216 94.2008 8.76 94.7448 9.48C95.3048 10.184 95.5608 11.16 95.5128 12.408C95.4488 14.296 94.6728 15.744 93.1848 16.752C91.7128 17.744 89.6088 18.24 86.8728 18.24ZM105.208 18.24C103.352 18.24 101.776 18 100.48 17.52C99.1837 17.04 98.2077 16.36 97.5517 15.48C96.8957 14.6 96.5917 13.568 96.6397 12.384H102.28C102.248 12.992 102.496 13.504 103.024 13.92C103.552 14.32 104.384 14.52 105.52 14.52C106.464 14.52 107.128 14.384 107.512 14.112C107.896 13.84 108.096 13.472 108.112 13.008C108.128 12.688 108.04 12.44 107.848 12.264C107.656 12.088 107.32 11.936 106.84 11.808C106.36 11.664 105.672 11.52 104.776 11.376C102.504 10.976 100.848 10.352 99.8077 9.504C98.7677 8.656 98.2717 7.496 98.3197 6.024C98.3677 4.712 98.7597 3.632 99.4957 2.784C100.232 1.936 101.208 1.304 102.424 0.887999C103.656 0.471999 105.008 0.263999 106.48 0.263999C108.128 0.263999 109.552 0.495999 110.752 0.959999C111.968 1.408 112.904 2.04 113.56 2.856C114.232 3.672 114.56 4.608 114.544 5.664H109.072C109.056 5.104 108.792 4.68 108.28 4.392C107.768 4.104 107.136 3.96 106.384 3.96C104.896 3.96 104.128 4.424 104.08 5.352C104.064 5.832 104.28 6.168 104.728 6.36C105.192 6.552 106.016 6.744 107.2 6.936C108.56 7.16 109.744 7.464 110.752 7.848C111.76 8.216 112.536 8.76 113.08 9.48C113.64 10.184 113.896 11.16 113.848 12.408C113.784 14.296 113.008 15.744 111.52 16.752C110.048 17.744 107.944 18.24 105.208 18.24Z" fill="#0C1870"/>
</svg>
